<?xml version="1.0" encoding="UTF-8" standalone="no"?>
<!DOCTYPE svg PUBLIC "-//W3C//DTD SVG 1.1//EN"
 "http://www.w3.org/Graphics/SVG/1.1/DTD/svg11.dtd">
<!-- Generated by graphviz version 2.38.0 (20140413.2041)
 -->
<!-- Title: %3 Pages: 1 -->
<svg width="869pt" height="188pt"
 viewBox="0.00 0.00 868.68 188.00" xmlns="http://www.w3.org/2000/svg" xmlns:xlink="http://www.w3.org/1999/xlink">
<g id="graph0" class="graph" transform="scale(1 1) rotate(0) translate(4 184)">
<title>%3</title>
<polygon fill="white" stroke="none" points="-4,4 -4,-184 864.684,-184 864.684,4 -4,4"/>
<!-- Mauritius -->
<g id="node1" class="node"><title>Mauritius</title>
<ellipse fill="none" stroke="black" cx="385.593" cy="-90" rx="44.393" ry="18"/>
<text text-anchor="middle" x="385.593" y="-86.3" font-family="Times New Roman,serif" font-size="14.00">Mauritius</text>
</g>
<!-- Greenpeace Africa -->
<g id="node2" class="node"><title>Greenpeace Africa</title>
<ellipse fill="none" stroke="black" cx="421.593" cy="-18" rx="78.7863" ry="18"/>
<text text-anchor="middle" x="421.593" y="-14.3" font-family="Times New Roman,serif" font-size="14.00">Greenpeace Africa</text>
</g>
<!-- Mauritius&#45;&#45;Greenpeace Africa -->
<g id="edge1" class="edge"><title>Mauritius&#45;&#45;Greenpeace Africa</title>
<path fill="none" stroke="black" d="M394.307,-72.055C399.884,-61.2111 407.099,-47.183 412.708,-36.2753"/>
</g>
<!-- Nagashiki Shipping -->
<g id="node3" class="node"><title>Nagashiki Shipping</title>
<ellipse fill="none" stroke="black" cx="80.5928" cy="-162" rx="80.6858" ry="18"/>
<text text-anchor="middle" x="80.5928" y="-158.3" font-family="Times New Roman,serif" font-size="14.00">Nagashiki Shipping</text>
</g>
<!-- Nagashiki Shipping&#45;&#45;Mauritius -->
<g id="edge3" class="edge"><title>Nagashiki Shipping&#45;&#45;Mauritius</title>
<path fill="none" stroke="black" d="M134.769,-148.566C196.052,-134.501 294.264,-111.961 347.801,-99.6736"/>
</g>
<!-- Nagashiki Shipping&#45;&#45;Greenpeace Africa -->
<g id="edge2" class="edge"><title>Nagashiki Shipping&#45;&#45;Greenpeace Africa</title>
<path fill="none" stroke="black" d="M116.758,-145.847C159.122,-128.107 231.426,-97.8583 293.593,-72 324.461,-59.1603 359.545,-44.6386 385.166,-34.0466"/>
</g>
<!-- Pravind Jugnauth -->
<g id="node4" class="node"><title>Pravind Jugnauth</title>
<ellipse fill="none" stroke="black" cx="251.593" cy="-162" rx="72.5877" ry="18"/>
<text text-anchor="middle" x="251.593" y="-158.3" font-family="Times New Roman,serif" font-size="14.00">Pravind Jugnauth</text>
</g>
<!-- Pravind Jugnauth&#45;&#45;Mauritius -->
<g id="edge5" class="edge"><title>Pravind Jugnauth&#45;&#45;Mauritius</title>
<path fill="none" stroke="black" d="M281.332,-145.465C304.772,-133.22 337.133,-116.315 359.558,-104.6"/>
</g>
<!-- Pravind Jugnauth&#45;&#45;Greenpeace Africa -->
<g id="edge4" class="edge"><title>Pravind Jugnauth&#45;&#45;Greenpeace Africa</title>
<path fill="none" stroke="black" d="M264.357,-144.21C279.332,-125.218 305.568,-94.068 332.593,-72 350.423,-57.4407 372.673,-44.1907 390.465,-34.5805"/>
</g>
<!-- Navid Singh Khadka -->
<g id="node5" class="node"><title>Navid Singh Khadka</title>
<ellipse fill="none" stroke="black" cx="427.593" cy="-162" rx="85.2851" ry="18"/>
<text text-anchor="middle" x="427.593" y="-158.3" font-family="Times New Roman,serif" font-size="14.00">Navid Singh Khadka</text>
</g>
<!-- Navid Singh Khadka&#45;&#45;Mauritius -->
<g id="edge7" class="edge"><title>Navid Singh Khadka&#45;&#45;Mauritius</title>
<path fill="none" stroke="black" d="M417.426,-144.055C410.822,-133.049 402.251,-118.764 395.666,-107.789"/>
</g>
<!-- Navid Singh Khadka&#45;&#45;Greenpeace Africa -->
<g id="edge6" class="edge"><title>Navid Singh Khadka&#45;&#45;Greenpeace Africa</title>
<path fill="none" stroke="black" d="M432.53,-143.893C437.051,-125.94 442.491,-96.9186 438.593,-72 436.681,-59.7798 432.431,-46.5298 428.659,-36.3349"/>
</g>
<!-- Mr Jugnauth -->
<g id="node6" class="node"><title>Mr Jugnauth</title>
<ellipse fill="none" stroke="black" cx="586.593" cy="-162" rx="55.7903" ry="18"/>
<text text-anchor="middle" x="586.593" y="-158.3" font-family="Times New Roman,serif" font-size="14.00">Mr Jugnauth</text>
</g>
<!-- Mr Jugnauth&#45;&#45;Mauritius -->
<g id="edge9" class="edge"><title>Mr Jugnauth&#45;&#45;Mauritius</title>
<path fill="none" stroke="black" d="M550.193,-148.324C512.521,-135.204 454.225,-114.902 418.068,-102.31"/>
</g>
<!-- Mr Jugnauth&#45;&#45;Greenpeace Africa -->
<g id="edge8" class="edge"><title>Mr Jugnauth&#45;&#45;Greenpeace Africa</title>
<path fill="none" stroke="black" d="M567.986,-144.987C536.465,-117.86 472.881,-63.139 440.895,-35.6118"/>
</g>
<!-- Vassen Kauppaymuthoo -->
<g id="node7" class="node"><title>Vassen Kauppaymuthoo</title>
<ellipse fill="none" stroke="black" cx="760.593" cy="-162" rx="100.182" ry="18"/>
<text text-anchor="middle" x="760.593" y="-158.3" font-family="Times New Roman,serif" font-size="14.00">Vassen Kauppaymuthoo</text>
</g>
<!-- Vassen Kauppaymuthoo&#45;&#45;Mauritius -->
<g id="edge11" class="edge"><title>Vassen Kauppaymuthoo&#45;&#45;Mauritius</title>
<path fill="none" stroke="black" d="M693.55,-148.485C615.392,-133.896 488.806,-110.266 425.013,-98.3584"/>
</g>
<!-- Vassen Kauppaymuthoo&#45;&#45;Greenpeace Africa -->
<g id="edge10" class="edge"><title>Vassen Kauppaymuthoo&#45;&#45;Greenpeace Africa</title>
<path fill="none" stroke="black" d="M723.019,-145.261C657.253,-117.713 522.142,-61.1179 457.54,-34.0573"/>
</g>
</g>
</svg>
